<svg width="72" height="19" viewBox="0 0 72 19" fill="none" xmlns="http://www.w3.org/2000/svg">
<path d="M65.1616 15.168C65.5342 15.8346 66.4658 15.8346 66.8384 15.168L71.8689 6.16797C72.2415 5.5013 71.7757 4.66797 71.0304 4.66797H60.9696C60.2243 4.66797 59.7585 5.5013 60.1311 6.16797L65.1616 15.168Z" fill="#FF3E13"/>
<path d="M39.0966 16V14.4773L43.1364 10.517C43.5227 10.1269 43.8447 9.7803 44.1023 9.47727C44.3598 9.17424 44.553 8.88068 44.6818 8.59659C44.8106 8.3125 44.875 8.00947 44.875 7.6875C44.875 7.32008 44.7917 7.00568 44.625 6.74432C44.4583 6.47917 44.2292 6.27462 43.9375 6.13068C43.6458 5.98674 43.3144 5.91477 42.9432 5.91477C42.5606 5.91477 42.2254 5.99432 41.9375 6.15341C41.6496 6.30871 41.4261 6.5303 41.267 6.81818C41.1117 7.10606 41.0341 7.44886 41.0341 7.84659H39.0284C39.0284 7.10795 39.197 6.46591 39.5341 5.92045C39.8712 5.375 40.3352 4.95265 40.9261 4.65341C41.5208 4.35417 42.2027 4.20455 42.9716 4.20455C43.7519 4.20455 44.4375 4.35038 45.0284 4.64205C45.6193 4.93371 46.0777 5.33333 46.4034 5.84091C46.733 6.34848 46.8977 6.92803 46.8977 7.57955C46.8977 8.01515 46.8144 8.44318 46.6477 8.86364C46.4811 9.28409 46.1875 9.75 45.767 10.2614C45.3504 10.7727 44.7652 11.392 44.0114 12.1193L42.0057 14.1591V14.2386H47.0739V16H39.0966Z" fill="#151E23"/>
</svg>
