<svg width="72" height="19" viewBox="0 0 72 19" fill="none" xmlns="http://www.w3.org/2000/svg">
<path d="M65.1616 5.16797C65.5342 4.5013 66.4658 4.5013 66.8384 5.16797L71.8689 14.168C72.2415 14.8346 71.7757 15.668 71.0304 15.668H60.9696C60.2243 15.668 59.7585 14.8346 60.1311 14.168L65.1616 5.16797Z" fill="#1FE08F"/>
<path d="M42.7884 16.1591C41.9702 16.1591 41.2429 16.0189 40.6065 15.7386C39.974 15.4583 39.474 15.0682 39.1065 14.5682C38.7391 14.0682 38.544 13.4905 38.5213 12.8352H40.6577C40.6766 13.1496 40.7808 13.4242 40.9702 13.6591C41.1596 13.8902 41.4115 14.0701 41.7259 14.1989C42.0402 14.3277 42.3925 14.392 42.7827 14.392C43.1993 14.392 43.5687 14.3201 43.8906 14.1761C44.2126 14.0284 44.4645 13.8239 44.6463 13.5625C44.8281 13.3011 44.9171 13 44.9134 12.6591C44.9171 12.3068 44.8262 11.9962 44.6406 11.7273C44.455 11.4583 44.1861 11.2481 43.8338 11.0966C43.4853 10.9451 43.0649 10.8693 42.5724 10.8693H41.544V9.24432H42.5724C42.9777 9.24432 43.3319 9.17424 43.6349 9.03409C43.9418 8.89394 44.1823 8.69697 44.3565 8.44318C44.5308 8.18561 44.616 7.88826 44.6122 7.55114C44.616 7.22159 44.5421 6.93561 44.3906 6.69318C44.2429 6.44697 44.0327 6.25568 43.7599 6.11932C43.491 5.98295 43.1747 5.91477 42.8111 5.91477C42.455 5.91477 42.1255 5.97917 41.8224 6.10795C41.5194 6.23674 41.2751 6.42045 41.0895 6.65909C40.9039 6.89394 40.8054 7.17424 40.794 7.5H38.7656C38.7808 6.84848 38.9683 6.27652 39.3281 5.78409C39.6918 5.28788 40.1766 4.90151 40.7827 4.625C41.3887 4.3447 42.0687 4.20455 42.8224 4.20455C43.599 4.20455 44.2732 4.35038 44.8452 4.64205C45.4209 4.92992 45.866 5.31818 46.1804 5.80682C46.4948 6.29545 46.652 6.83523 46.652 7.42614C46.6558 8.08144 46.4626 8.63068 46.0724 9.07386C45.6861 9.51705 45.1785 9.80682 44.5497 9.94318V10.0341C45.3679 10.1477 45.9948 10.4508 46.4304 10.9432C46.8698 11.4318 47.0876 12.0398 47.0838 12.767C47.0838 13.4186 46.8982 14.0019 46.527 14.517C46.1596 15.0284 45.652 15.4299 45.0043 15.7216C44.3603 16.0133 43.6217 16.1591 42.7884 16.1591Z" fill="#151E23"/>
</svg>
